<svg id="Iconly_Bold_3_User" data-name="Iconly/Bold/3 User" xmlns="http://www.w3.org/2000/svg" width="38" height="27" viewBox="0 0 38 27">
  <g id="_3_User" data-name="3 User">
    <path id="_3_Friends" data-name="3 Friends" d="M7.925,22.41c0-3.674,5.027-4.625,10.988-4.625,5.926,0,10.986.917,10.986,4.591S24.871,27,18.913,27C12.985,27,7.925,26.081,7.925,22.41Zm25.042.68c.508-4.67-3.538-6.884-4.586-7.395a.075.075,0,0,1-.05-.079.065.065,0,0,1,.056-.044,27.366,27.366,0,0,1,5.6.48c1.906.366,3.16,1.113,3.681,2.2a3.185,3.185,0,0,1,0,2.819c-.8,1.684-3.358,2.226-4.354,2.366a.317.317,0,0,1-.046,0A.311.311,0,0,1,32.967,23.091Zm-28.283.346c-.995-.14-3.558-.68-4.353-2.366a3.162,3.162,0,0,1,0-2.817c.519-1.087,1.772-1.835,3.68-2.2a27.639,27.639,0,0,1,5.6-.477.063.063,0,0,1,.054.043.077.077,0,0,1-.048.08c-1.049.509-5.1,2.723-4.587,7.392a.31.31,0,0,1-.3.351A.325.325,0,0,1,4.684,23.437ZM11.642,7.143a7.272,7.272,0,0,1,14.541,0,7.272,7.272,0,0,1-14.541,0Zm16.966,6.09a6,6,0,0,1-.835-.079.267.267,0,0,1-.183-.413,9.67,9.67,0,0,0-.146-11.157.176.176,0,0,1-.028-.187.226.226,0,0,1,.143-.084,6.2,6.2,0,0,1,1.223-.123,6.023,6.023,0,1,1-.007,12.044ZM3.3,8.809A6.065,6.065,0,0,1,9.217,1.191a6.235,6.235,0,0,1,1.225.123.233.233,0,0,1,.141.084.173.173,0,0,1-.028.185,9.669,9.669,0,0,0-.145,11.158.267.267,0,0,1-.185.413,5.8,5.8,0,0,1-.835.079l-.167,0A6.044,6.044,0,0,1,3.3,8.809Z" fill="#c54fe8"/>
  </g>
</svg>
