<svg xmlns="http://www.w3.org/2000/svg" xmlns:xlink="http://www.w3.org/1999/xlink" width="71" height="71" viewBox="0 0 71 71">
  <defs>
    <filter id="background" x="0" y="0" width="71" height="71" filterUnits="userSpaceOnUse">
      <feOffset dy="3" input="SourceAlpha"/>
      <feGaussianBlur stdDeviation="4" result="blur"/>
      <feFlood flood-color="#33353c" flood-opacity="0.2"/>
      <feComposite operator="in" in2="blur"/>
      <feComposite in="SourceGraphic"/>
    </filter>
  </defs>
  <g id="Component_11_1" data-name="Component 11 – 1" transform="translate(12 9)">
    <g transform="matrix(1, 0, 0, 1, -12, -9)" filter="url(#background)">
      <rect id="background-2" data-name="background" width="47" height="47" rx="23.5" transform="translate(12 9)" fill="#fefeff"/>
    </g>
    <g id="Iconly_Bold_Notification" data-name="Iconly/Bold/Notification" transform="translate(12.881 14.983)">
      <g id="Notification">
        <path id="Notification-2" data-name="Notification" d="M8.589,21.483a3.894,3.894,0,0,1-1.844-.788A1.669,1.669,0,0,1,6,19.433c0-.542.5-.79.957-.9a27.925,27.925,0,0,1,4.354,0c.46.107.957.354.957.9a1.671,1.671,0,0,1-.748,1.263,3.911,3.911,0,0,1-1.843.787,4.3,4.3,0,0,1-.55.036A3.945,3.945,0,0,1,8.589,21.483Zm-4.54-4.54a4.879,4.879,0,0,1-3.12-1.52A3.889,3.889,0,0,1,0,12.864a3.624,3.624,0,0,1,.786-2.486A4.086,4.086,0,0,0,1.93,7.312V6.854A6.052,6.052,0,0,1,3.311,2.7,7.61,7.61,0,0,1,9.1,0h.1a7.576,7.576,0,0,1,5.882,2.824,5.967,5.967,0,0,1,1.286,4.03v.458A4.184,4.184,0,0,0,17.5,10.378a3.619,3.619,0,0,1,.786,2.486,3.888,3.888,0,0,1-.929,2.559,4.884,4.884,0,0,1-3.12,1.52c-1.691.143-3.382.265-5.1.265A44.854,44.854,0,0,1,4.05,16.943Z" fill="#c54fe8"/>
      </g>
    </g>
    <g id="Group_5566" data-name="Group 5566" transform="translate(22.027 8.69)">
      <circle id="Ellipse_145" data-name="Ellipse 145" cx="6.293" cy="6.293" r="6.293" transform="translate(0 0)" fill="#e94057"/>
      <text id="_3" data-name="3" transform="translate(3.776 9.259)" fill="#fff" font-size="8" font-family="Poppins-Regular, Poppins"><tspan x="0" y="0">3</tspan></text>
    </g>
  </g>
</svg>
