<svg id="Document" xmlns="http://www.w3.org/2000/svg" width="24" height="27" viewBox="0 0 24 27">
  <g id="Document-2" data-name="Document">
    <path id="Document-3" data-name="Document" d="M17.588,27H6.413C2.337,27,0,24.618,0,20.466V6.521a6.677,6.677,0,0,1,1.687-4.8A6.438,6.438,0,0,1,6.413,0H17.588C21.663,0,24,2.377,24,6.521V20.466A6.653,6.653,0,0,1,22.339,25.3,6.379,6.379,0,0,1,17.588,27ZM6.665,18.544a1.038,1.038,0,0,0-.891.5,1.083,1.083,0,0,0,0,1.134,1.047,1.047,0,0,0,.87.495.922.922,0,0,0,.13-.009H17.227a1.068,1.068,0,0,0,0-2.119H6.773A1.053,1.053,0,0,0,6.665,18.544Zm.108-6.152a1.054,1.054,0,0,0,0,2.107H17.227a1.054,1.054,0,0,0,0-2.107Zm0-6.114v.013h0a1.052,1.052,0,0,0,0,2.1h3.986a1.06,1.06,0,0,0,0-2.119Z" fill="#c54fe8"/>
  </g>
</svg>
