<svg id="Component_612_1" data-name="Component 612 – 1" xmlns="http://www.w3.org/2000/svg" width="14.492" height="7.75" viewBox="0 0 14.492 7.75">
  <path id="Path_35743" data-name="Path 35743" d="M581.4,374.914a.892.892,0,0,1,1.273,1.249l-4.747,5.938a.9.9,0,0,1-.29.207.9.9,0,0,1-1-.183l-3.148-3.149a.891.891,0,0,1-.207-.29.882.882,0,0,1-.077-.347.893.893,0,0,1,.065-.35.91.91,0,0,1,.2-.3.891.891,0,0,1,1.284.023l2.492,2.49,4.131-5.265ZM580.3,381.03l1.095,1.1a.909.909,0,0,0,.3.2.874.874,0,0,0,.35.064.887.887,0,0,0,.637-.284l4.75-5.938a.888.888,0,0,0,.2-.3.9.9,0,0,0,.067-.349.885.885,0,0,0-.076-.348.874.874,0,0,0-.205-.291.89.89,0,0,0-1.283.061L582,380.2l-.577-.578-1.122,1.4Z" transform="translate(-573.204 -374.636)" fill="#2391ff"/>
</svg>
