<svg xmlns="http://www.w3.org/2000/svg" width="18" height="17.099" viewBox="0 0 18 17.099">
  <g id="Star" transform="translate(0)">
    <path id="Star-2" data-name="Star" d="M14.325,10.637a.99.99,0,0,0-.287.873l.8,4.427a.972.972,0,0,1-.4.972.991.991,0,0,1-1.053.072L9.395,14.9a1.018,1.018,0,0,0-.45-.118H8.7a.73.73,0,0,0-.243.081L4.471,16.954a1.051,1.051,0,0,1-.639.1,1,1,0,0,1-.8-1.144l.8-4.427a1.007,1.007,0,0,0-.287-.881L.3,7.451A.971.971,0,0,1,.054,6.434a1.01,1.01,0,0,1,.8-.675L5.326,5.11a1,1,0,0,0,.792-.548L8.089.522a.937.937,0,0,1,.18-.243L8.35.216A.6.6,0,0,1,8.495.1l.1-.036L8.746,0h.379a1.007,1.007,0,0,1,.792.54l2,4.022a1,1,0,0,0,.747.548l4.472.649a1.02,1.02,0,0,1,.819.675.978.978,0,0,1-.261,1.017Z" fill="#a3b6cc"/>
  </g>
</svg>
