<svg xmlns="http://www.w3.org/2000/svg" width="16.215" height="17.068" viewBox="0 0 16.215 17.068">
  <g id="Group_68037" data-name="Group 68037" transform="translate(-41.789 -140.607)">
    <path id="Path_36756" data-name="Path 36756" d="M60.834,150.6v-5.8c0-1.28-.546-1.792-1.9-1.792H55.483c-1.357,0-1.9.512-1.9,1.792v5.8c0,1.28.546,1.792,1.9,1.792h3.448C60.288,152.387,60.834,151.875,60.834,150.6Z" transform="translate(-2.83 -2.393)" fill="#a3b6cc"/>
    <path id="Path_36757" data-name="Path 36757" d="M50.334,153.792v5.8c0,1.28-.546,1.792-1.9,1.792H44.983c-1.357,0-1.9-.512-1.9-1.792v-5.8c0-1.28.546-1.792,1.9-1.792h3.448C49.788,152,50.334,152.512,50.334,153.792Z" transform="translate(-1.291 -3.712)" fill="#a3b6cc"/>
    <path id="Path_36758" data-name="Path 36758" d="M60.834,160.182v-2.39c0-1.28-.546-1.792-1.9-1.792H55.483c-1.357,0-1.9.512-1.9,1.792v2.39c0,1.28.546,1.792,1.9,1.792h3.448C60.288,161.974,60.834,161.462,60.834,160.182Z" transform="translate(-2.83 -4.299)" fill="#a3b6cc"/>
    <path id="Path_36759" data-name="Path 36759" d="M50.334,147.182v-2.39c0-1.28-.546-1.792-1.9-1.792H44.983c-1.357,0-1.9.512-1.9,1.792v2.39c0,1.28.546,1.792,1.9,1.792h3.448C49.788,148.974,50.334,148.462,50.334,147.182Z" transform="translate(-1.291 -2.393)" fill="#a3b6cc"/>
  </g>
</svg>
