<svg xmlns="http://www.w3.org/2000/svg" width="18" height="18" viewBox="0 0 18 18">
  <g id="Iconly_Bold_Tick_Square" data-name="Iconly/Bold/Tick Square" transform="translate(-2 -2)">
    <g id="Tick_Square" data-name="Tick Square" transform="translate(2 2)">
      <path id="Tick_Square-2" data-name="Tick Square" d="M12.906,18H5.1C2.051,18,0,15.863,0,12.682V5.328C0,2.141,2.051,0,5.1,0h7.8C15.953,0,18,2.141,18,5.328v7.354C18,15.863,15.953,18,12.906,18ZM5.8,8.212a.788.788,0,0,0-.558,1.346L7.38,11.691a.793.793,0,0,0,1.107,0l4.275-4.274A.789.789,0,0,0,11.646,6.3L7.929,10.017,6.354,8.442A.782.782,0,0,0,5.8,8.212Z" transform="translate(0 0)" fill="#a3b6cc"/>
    </g>
  </g>
</svg>
