<svg id="Iconly_Bold_Logout" data-name="Iconly/Bold/Logout" xmlns="http://www.w3.org/2000/svg" width="16.884" height="16.25" viewBox="0 0 16.884 16.25">
  <g id="Logout">
    <path id="Logout-2" data-name="Logout" d="M3.67,16.25A3.642,3.642,0,0,1,0,12.643V3.615A3.65,3.65,0,0,1,3.679,0H7.712a3.64,3.64,0,0,1,3.663,3.607V7.5H6.415a.626.626,0,1,0,0,1.251h4.96v3.884A3.65,3.65,0,0,1,7.7,16.25Zm9.769-5.321a.628.628,0,0,1,0-.886l1.3-1.292H11.375V7.5h3.364l-1.3-1.292a.628.628,0,0,1,0-.886.621.621,0,0,1,.886-.008L16.7,7.678a.623.623,0,0,1,.186.447.6.6,0,0,1-.186.439l-2.373,2.365a.619.619,0,0,1-.886,0Z" fill="#a3b6cc"/>
  </g>
</svg>
