<svg xmlns="http://www.w3.org/2000/svg" width="18" height="17.666" viewBox="0 0 18 17.666">
  <g id="podcast-icon" transform="translate(0.001 0)">
    <path id="Path_36828" data-name="Path 36828" d="M10.1,10.24v7.425H7.9V10.24a2.306,2.306,0,1,1,2.193,0Zm-4.337-8.6A.862.862,0,0,0,5,.089,8.9,8.9,0,0,0,1.041,4.046,9.478,9.478,0,0,0,0,8.049a8.671,8.671,0,0,0,.875,4.118,9.038,9.038,0,0,0,4.107,4.042.861.861,0,0,0,.783-1.533A7.344,7.344,0,0,1,2.425,11.4a6.955,6.955,0,0,1-.7-3.3A7.749,7.749,0,0,1,2.574,4.83,7.176,7.176,0,0,1,5.759,1.635ZM13,.089a.862.862,0,0,0-.763,1.546A7.173,7.173,0,0,1,15.425,4.83,7.748,7.748,0,0,1,16.273,8.1a6.956,6.956,0,0,1-.7,3.3,7.344,7.344,0,0,1-3.345,3.272.861.861,0,0,0,.783,1.533,9.038,9.038,0,0,0,4.107-4.042A8.671,8.671,0,0,0,18,8.049a9.48,9.48,0,0,0-1.037-4A8.9,8.9,0,0,0,13,.089Zm-.875,3.794a.718.718,0,1,0-.838,1.165,4.143,4.143,0,0,1,.381.313,3.918,3.918,0,0,1,1.251,2.514,4.2,4.2,0,0,1-.808,2.864,4.962,4.962,0,0,1-.379.461.719.719,0,0,0,1.058.973,6.324,6.324,0,0,0,.486-.6A5.622,5.622,0,0,0,14.35,7.738,5.355,5.355,0,0,0,12.644,4.3a5.563,5.563,0,0,0-.516-.42ZM6.71,5.047a.718.718,0,0,0-.838-1.165,5.567,5.567,0,0,0-.516.42A5.355,5.355,0,0,0,3.649,7.738a5.622,5.622,0,0,0,1.073,3.838,6.409,6.409,0,0,0,.486.6A.719.719,0,0,0,6.265,11.2a4.981,4.981,0,0,1-.379-.461,4.2,4.2,0,0,1-.808-2.864A3.918,3.918,0,0,1,6.329,5.36a4.2,4.2,0,0,1,.381-.312Z" transform="translate(0)" fill="#a3b6cc" fill-rule="evenodd"/>
  </g>
</svg>
