<svg id="speaking-bubbles-black-icon" xmlns="http://www.w3.org/2000/svg" width="18" height="15" viewBox="0 0 18 15">
  <path id="Path_40247" data-name="Path 40247" d="M6.846,0h-4.4A2.357,2.357,0,0,0,.715.715,2.357,2.357,0,0,0,0,2.446V6.74A2.359,2.359,0,0,0,.715,8.474a2.371,2.371,0,0,0,1.731.715h1.89a9.523,9.523,0,0,1-.531,1.533,4.084,4.084,0,0,1-1.069,1.391A8.457,8.457,0,0,0,5.289,11,7.577,7.577,0,0,0,7.218,9.19H8.84a2.442,2.442,0,0,0,2.446-2.45V2.446A2.356,2.356,0,0,0,10.571.715,2.357,2.357,0,0,0,8.84,0ZM18,4.931V9.225a2.77,2.77,0,0,1-.835,2.02,3.1,3.1,0,0,1-.379.321,2.775,2.775,0,0,1-.416.246l-.023.01a2.688,2.688,0,0,1-.566.19,2.962,2.962,0,0,1-.631.066H13.792q.041.13.085.257.125.36.281.709v0h0a3.015,3.015,0,0,0,.376.627,4.545,4.545,0,0,0,.591.624.4.4,0,0,1-.367.69h0a9.49,9.49,0,0,1-1.414-.485,8.322,8.322,0,0,1-1.257-.68h0a7.973,7.973,0,0,1-1.905-1.746H8.756a2.924,2.924,0,0,1-.765-.1,2.688,2.688,0,0,1-.7-.3.4.4,0,1,1,.416-.687A1.882,1.882,0,0,0,8.2,11.2a2.131,2.131,0,0,0,.557.071h1.622v0a.4.4,0,0,1,.321.161,7.264,7.264,0,0,0,.841.941,7.18,7.18,0,0,0,.988.776h0a7.51,7.51,0,0,0,1.087.592,3.442,3.442,0,0,1-.192-.375h0q-.165-.369-.3-.772-.132-.382-.237-.784a.408.408,0,0,1-.024-.138.4.4,0,0,1,.4-.4H15.15a2.163,2.163,0,0,0,.461-.047,1.891,1.891,0,0,0,.394-.131l.019-.009a1.956,1.956,0,0,0,.3-.174,2.255,2.255,0,0,0,.278-.235,2.016,2.016,0,0,0,.449-.659,2.052,2.052,0,0,0,.147-.79V4.931a2.042,2.042,0,0,0-.147-.787,2.018,2.018,0,0,0-.449-.659h0v0a2.016,2.016,0,0,0-.659-.449,2.044,2.044,0,0,0-.787-.147H13.156a.4.4,0,1,1,0-.807H15.15a2.768,2.768,0,0,1,2.015.833h0A2.769,2.769,0,0,1,18,4.931Z" fill="#a3b6cc"/>
</svg>
