<svg xmlns="http://www.w3.org/2000/svg" width="18" height="16.786" viewBox="0 0 18 16.786">
  <path id="product-icon" d="M17.3,1.376a.476.476,0,0,1,.322.06.48.48,0,0,1,.293.439L18,13.42a.482.482,0,0,1-.233.439l-4.714,2.8a.482.482,0,0,1-.293.1.449.449,0,0,1-.078,0L.455,15.392A.48.48,0,0,1,0,14.916V3.168H0a.48.48,0,0,1,.293-.451L6.427.018h0a.467.467,0,0,1,.255-.04L17.3,1.371Zm-5.457.249L8.23,3.675l4.449.568,3.3-2.077-4.131-.542ZM7.6,4.554,7.432,9.442,5.6,8.193,3.766,9.23l.371-5.113L.959,3.712V14.484l11.325,1.259V5.157L7.6,4.558ZM4.711,3.222,8.218,1.15,6.692.948,2.231,2.908l2.482.318Zm8.534,1.8V15.433l3.793-2.261-.076-10.5L13.245,5.018Z" transform="translate(0.001 0.025)" fill="#a3b6cc"/>
</svg>
