<svg id="Component_613_1" data-name="Component 613 – 1" xmlns="http://www.w3.org/2000/svg" width="17.978" height="17.97" viewBox="0 0 17.978 17.97">
  <path id="Path_35731" data-name="Path 35731" d="M549.914,1128.66l-8.6,2.86c-5.779,1.93-5.779,5.08,0,7.01l2.551.84.847,2.55c1.923,5.78,5.083,5.78,7.006,0l2.866-8.58C555.863,1129.48,553.769,1127.38,549.914,1128.66Zm.3,5.13-3.617,3.63a.711.711,0,0,1-1.009,0,.719.719,0,0,1,0-1.01l3.617-3.63a.711.711,0,0,1,1.009,0A.719.719,0,0,1,550.218,1133.79Z" transform="translate(-536.984 -1128.285)" fill="#fff"/>
</svg>
