<svg id="Iconly_Bold_Shield_Done" data-name="Iconly/Bold/Shield Done" xmlns="http://www.w3.org/2000/svg" width="23.491" height="27" viewBox="0 0 23.491 27">
  <g id="Shield_Done" data-name="Shield Done" transform="translate(0)">
    <path id="Shield_Done-2" data-name="Shield Done" d="M11.858,27a1.068,1.068,0,0,1-.488-.117L6.393,24.368a11.67,11.67,0,0,1-3.38-2.453,11,11,0,0,1-2.955-7.39L0,5.567a2.452,2.452,0,0,1,1.7-2.31L10.834.143a2.669,2.669,0,0,1,1.7-.009l9.172,3.006A2.45,2.45,0,0,1,23.432,5.43l.058,8.964a10.979,10.979,0,0,1-2.854,7.419A11.646,11.646,0,0,1,17.29,24.3l-4.93,2.575a1.108,1.108,0,0,1-.495.122ZM8.151,12.159a1.069,1.069,0,0,0-.744.3.959.959,0,0,0,.01,1.4l2.648,2.488a1.06,1.06,0,0,0,.73.287h.01a1.065,1.065,0,0,0,.736-.3l5.387-5.189a.959.959,0,0,0-.009-1.4,1.081,1.081,0,0,0-1.475.007L10.79,14.236,8.883,12.445A1.064,1.064,0,0,0,8.151,12.159Z" transform="translate(0)" fill="#c54fe8"/>
  </g>
</svg>
