<svg xmlns="http://www.w3.org/2000/svg" width="18" height="17.889" viewBox="0 0 18 17.889">
  <path id="Fill_1" data-name="Fill 1" d="M17.492.521A1.745,1.745,0,0,0,15.754.07L1.267,4.256A1.723,1.723,0,0,0,.022,5.617,2.012,2.012,0,0,0,.924,7.5l4.53,2.766A1.178,1.178,0,0,0,6.9,10.092L12.09,4.905a.662.662,0,0,1,.954,0,.679.679,0,0,1,0,.954l-5.2,5.187A1.18,1.18,0,0,0,7.674,12.5l2.768,4.547a1.8,1.8,0,0,0,1.72.836,1.75,1.75,0,0,0,1.468-1.243L17.924,2.258A1.749,1.749,0,0,0,17.492.521" fill="#a3b6cc"/>
</svg>
